<svg width="28" height="28" viewBox="0 0 28 28" fill="none" xmlns="http://www.w3.org/2000/svg">
<g opacity="0.5" clip-path="url(#clip0_2123_49)">
<g clip-path="url(#clip1_2123_49)">
<path d="M24.8844 8.82112L14.7171 19.7439L17.5505 6.5976H16.7084L14 19.1641L11.2917 6.5976H10.4495L13.283 19.7439L3.11572 8.82112H1.99023L13.0865 20.7417C13.5801 21.272 14.42 21.272 14.9136 20.7417L26.0098 8.82112H24.8844Z" fill="url(#paint0_linear_2123_49)"/>
<path d="M21.6819 12.2614H22.8073L26.0098 8.82111H24.8843L21.6819 12.2614Z" fill="url(#paint1_linear_2123_49)"/>
<path d="M3.11572 8.82111H1.99023L5.19267 12.2614H6.3181L3.11572 8.82111Z" fill="url(#paint2_linear_2123_49)"/>
<path d="M10.4495 6.5976L11.6702 12.2614H12.5123L11.2917 6.5976H10.4495Z" fill="url(#paint3_linear_2123_49)"/>
<path d="M15.4875 12.2614H16.3297L17.5504 6.5976H16.7082L15.4875 12.2614Z" fill="url(#paint4_linear_2123_49)"/>
<path d="M20.1262 28H7.87364C7.59842 28 7.37524 27.7769 7.37524 27.5016V17.2966C7.37524 17.0214 7.59837 16.7982 7.87364 16.7982H20.1263C20.4015 16.7982 20.6247 17.0213 20.6247 17.2966V27.5016C20.6246 27.7769 20.4015 28 20.1262 28Z" fill="url(#paint5_linear_2123_49)"/>
<path d="M20.6245 17.2966V27.5017C20.6245 27.7768 20.4013 28 20.1262 28H18.4999L10.4731 19.9732V16.7983H20.1262C20.4013 16.7983 20.6245 17.0215 20.6245 17.2966Z" fill="url(#paint6_linear_2123_49)"/>
<path d="M20.1262 16.7983H16.645C16.9202 16.7983 17.1434 17.0214 17.1434 17.2967V27.5017C17.1434 27.7769 16.9203 28.0001 16.645 28.0001H20.1262C20.4015 28.0001 20.6246 27.777 20.6246 27.5017V17.2966C20.6246 17.0214 20.4015 16.7983 20.1262 16.7983Z" fill="url(#paint7_linear_2123_49)"/>
<path d="M7.37524 25.2982V27.5017C7.37524 27.7769 7.59837 28.0001 7.87364 28.0001H20.1263C20.4015 28.0001 20.6247 27.7769 20.6247 27.5017V25.2982H7.37524Z" fill="url(#paint8_linear_2123_49)"/>
<path d="M10.9849 20.0585L10.9946 20.0645C11.2186 20.2005 11.5003 20.1982 11.7221 20.0585C11.9487 19.9217 12.2326 19.9217 12.4592 20.0585C12.6858 20.1954 12.9697 20.1954 13.1963 20.0585H13.1964C13.3014 19.9977 13.4176 19.9964 13.5347 20.0184C13.6682 20.0434 13.7922 19.9433 13.7922 19.8075V16.8995C13.7922 16.8027 13.7137 16.7242 13.6168 16.7242H10.5643C10.4674 16.7242 10.3889 16.8027 10.3889 16.8995V19.8034C10.3889 19.9384 10.5117 20.0394 10.6444 20.0146C10.7627 19.9924 10.88 19.9949 10.9849 20.0585Z" fill="url(#paint9_linear_2123_49)"/>
<path d="M26.2464 7.38981C24.5966 3.10482 19.7379 6.10352e-05 14 6.10352e-05C8.26209 6.10352e-05 3.40338 3.10477 1.75346 7.38976C1.17233 8.92426 2.22957 10.6049 3.77984 10.6049C4.78537 10.6049 5.65408 9.87264 5.89626 8.84674C5.91954 8.74814 6.00063 8.67787 6.09561 8.67787C6.18158 8.67787 6.25828 8.7354 6.28771 8.82193C6.63458 9.84162 7.54837 10.6049 8.66392 10.6049C9.74296 10.6049 10.6738 9.87654 11.0305 8.84103C11.064 8.74358 11.1494 8.67781 11.2464 8.67781C11.3373 8.67781 11.4194 8.73535 11.456 8.82445C11.8825 9.86594 12.8553 10.6049 13.9999 10.6049C15.1445 10.6049 16.1172 9.86594 16.5438 8.82445C16.5803 8.73535 16.6625 8.67781 16.7534 8.67781C16.8504 8.67781 16.9358 8.74358 16.9693 8.84103C17.3259 9.87654 18.2568 10.6049 19.3359 10.6049C20.4514 10.6049 21.3652 9.84162 21.7121 8.82187C21.7415 8.73535 21.8182 8.67781 21.9042 8.67781C21.9992 8.67781 22.0803 8.74809 22.1035 8.84669C22.3457 9.87264 23.2145 10.6049 24.22 10.6049C25.7703 10.6049 26.8275 8.92432 26.2464 7.38981Z" fill="url(#paint10_linear_2123_49)"/>
<path d="M8.66391 10.6049C6.9978 10.6049 5.77941 8.90307 6.23153 7.18601C7.32122 3.0475 10.3344 0.0589647 13.8939 0.000603922C13.9291 0 13.9647 0 13.9999 0C12.6334 0 11.4876 3.45202 11.1797 8.10035C11.0862 9.51221 9.98578 10.6049 8.66391 10.6049Z" fill="url(#paint11_linear_2123_49)"/>
<path d="M19.336 10.6049C18.0141 10.6049 16.9137 9.51221 16.8202 8.10035C16.5123 3.45202 15.3665 0 14 0C14.0351 0 14.0708 0 14.106 0.000603922C17.6655 0.0589647 20.6787 3.0475 21.7684 7.18601C22.2205 8.90307 21.0021 10.6049 19.336 10.6049Z" fill="url(#paint12_linear_2123_49)"/>
<path d="M16.9658 8.83241C16.9488 8.78712 16.9208 8.75011 16.8851 8.72304C16.8472 8.69422 16.8022 8.67775 16.7533 8.67775C16.6627 8.67775 16.5804 8.73534 16.5441 8.82412C16.3311 9.34497 15.9808 9.79001 15.5416 10.1051C15.1019 10.4202 14.5721 10.6049 14 10.6049C12.8553 10.6049 11.8824 9.86588 11.4558 8.82417C11.4377 8.78009 11.4081 8.74303 11.3718 8.71777C11.335 8.69191 11.2922 8.6778 11.2467 8.6778C11.1528 8.6778 11.0699 8.73952 11.0342 8.83241C11.1127 8.60199 11.1627 8.35624 11.1797 8.10051C11.4855 3.48853 12.6154 0.0540784 13.9681 0.000603922C13.9786 0 13.9896 0 14 0C14.0104 0 14.0214 0 14.0318 0.000603922C15.3846 0.0540784 16.5145 3.48853 16.8203 8.10051C16.8373 8.35619 16.8873 8.60193 16.9658 8.83241Z" fill="url(#paint13_linear_2123_49)"/>
</g>
</g>
<defs>
<linearGradient id="paint0_linear_2123_49" x1="9.18223" y1="9.33665" x2="21.1509" y2="15.6687" gradientUnits="userSpaceOnUse">
<stop stop-color="#537983"/>
<stop offset="1" stop-color="#3E5959"/>
</linearGradient>
<linearGradient id="paint1_linear_2123_49" x1="23.8458" y1="12.0235" x2="23.8458" y2="9.717" gradientUnits="userSpaceOnUse">
<stop stop-color="#384949" stop-opacity="0"/>
<stop offset="1" stop-color="#384949"/>
</linearGradient>
<linearGradient id="paint2_linear_2123_49" x1="4.1542" y1="12.0235" x2="4.1542" y2="9.717" gradientUnits="userSpaceOnUse">
<stop stop-color="#384949" stop-opacity="0"/>
<stop offset="1" stop-color="#384949"/>
</linearGradient>
<linearGradient id="paint3_linear_2123_49" x1="11.4809" y1="12.0236" x2="11.4809" y2="9.71702" gradientUnits="userSpaceOnUse">
<stop stop-color="#384949" stop-opacity="0"/>
<stop offset="1" stop-color="#384949"/>
</linearGradient>
<linearGradient id="paint4_linear_2123_49" x1="16.519" y1="12.0236" x2="16.519" y2="9.71702" gradientUnits="userSpaceOnUse">
<stop stop-color="#384949" stop-opacity="0"/>
<stop offset="1" stop-color="#384949"/>
</linearGradient>
<linearGradient id="paint5_linear_2123_49" x1="9.60086" y1="18.0001" x2="20.1788" y2="28.578" gradientUnits="userSpaceOnUse">
<stop stop-color="#FEE45A"/>
<stop offset="1" stop-color="#FE860A"/>
</linearGradient>
<linearGradient id="paint6_linear_2123_49" x1="19.7269" y1="22.6367" x2="6.08785" y2="12.9465" gradientUnits="userSpaceOnUse">
<stop stop-color="#FE860A" stop-opacity="0"/>
<stop offset="1" stop-color="#FE7701"/>
</linearGradient>
<linearGradient id="paint7_linear_2123_49" x1="21.065" y1="19.6864" x2="12.7197" y2="28.4876" gradientUnits="userSpaceOnUse">
<stop stop-color="#FE860A" stop-opacity="0"/>
<stop offset="1" stop-color="#FE7701"/>
</linearGradient>
<linearGradient id="paint8_linear_2123_49" x1="13.9999" y1="26.1295" x2="13.9999" y2="28.5247" gradientUnits="userSpaceOnUse">
<stop stop-color="#FE860A" stop-opacity="0"/>
<stop offset="1" stop-color="#FE7701"/>
</linearGradient>
<linearGradient id="paint9_linear_2123_49" x1="10.8249" y1="17.094" x2="14.5934" y2="20.8624" gradientUnits="userSpaceOnUse">
<stop stop-color="#EAF6FF"/>
<stop offset="0.2575" stop-color="#DCE8FA"/>
<stop offset="0.7423" stop-color="#B8C4ED"/>
<stop offset="1" stop-color="#A2AEE6"/>
</linearGradient>
<linearGradient id="paint10_linear_2123_49" x1="11.3361" y1="1.07965" x2="17.4002" y2="17.4413" gradientUnits="userSpaceOnUse">
<stop stop-color="#FD4755"/>
<stop offset="1" stop-color="#AC2538"/>
</linearGradient>
<linearGradient id="paint11_linear_2123_49" x1="7.7382" y1="2.20744" x2="13.8375" y2="8.30678" gradientUnits="userSpaceOnUse">
<stop stop-color="#972437" stop-opacity="0"/>
<stop offset="1" stop-color="#972437"/>
</linearGradient>
<linearGradient id="paint12_linear_2123_49" x1="13.7694" y1="3.33414" x2="21.7843" y2="7.90605" gradientUnits="userSpaceOnUse">
<stop stop-color="#972437" stop-opacity="0"/>
<stop offset="1" stop-color="#972437"/>
</linearGradient>
<linearGradient id="paint13_linear_2123_49" x1="11.9877" y1="3.83479" x2="17.763" y2="8.8452" gradientUnits="userSpaceOnUse">
<stop stop-color="#FD4755"/>
<stop offset="1" stop-color="#AC2538"/>
</linearGradient>
<clipPath id="clip0_2123_49">
<rect width="28" height="28" fill="white"/>
</clipPath>
<clipPath id="clip1_2123_49">
<rect width="28" height="28" fill="white"/>
</clipPath>
</defs>
</svg>
