<svg width="20" height="20" viewBox="0 0 20 20" fill="none" xmlns="http://www.w3.org/2000/svg">
<path d="M14.5309 10L19.0617 5.46918C20.3128 4.21807 20.3128 2.18944 19.0617 0.938333C17.8107 -0.312778 15.782 -0.312778 14.5309 0.938333L10 5.46918L5.46918 0.938366C4.21807 -0.312745 2.18944 -0.312745 0.938333 0.938366C-0.312778 2.18948 -0.312778 4.2181 0.938333 5.46922L5.46918 10L0.938366 14.5309C-0.312745 15.782 -0.312745 17.8106 0.938366 19.0617C2.18948 20.3128 4.2181 20.3128 5.46922 19.0617L10 14.5309L14.5309 19.0617C15.782 20.3128 17.8106 20.3128 19.0617 19.0617C20.3128 17.8107 20.3128 15.782 19.0617 14.5309L14.5309 10Z" fill="#FFD15B"/>
</svg>
