<svg width="36" height="40" viewBox="0 0 36 40" fill="none" xmlns="http://www.w3.org/2000/svg">
<g filter="url(#filter0_d_2048_5057)">
<path d="M18 6L7.60767 12V24L18 30L28.3923 24V12L18 6Z" fill="#82D2FF"/>
<path d="M18 18V6L7.60767 12L18 18Z" fill="#08B7FC"/>
<path d="M7.60767 12V24L18 18L7.60767 12Z" fill="#006DFF"/>
<path d="M28.3923 12L18 18L28.3923 24V12Z" fill="#08B7FC"/>
<path d="M18 18L7.60767 24L18 30V18Z" fill="#0050C0"/>
<path d="M18 30L28.3923 24L18 18V30Z" fill="#006DFF"/>
<path d="M23.8651 21.386V14.6137L18.0001 11.2275L12.135 14.6137V21.386L18.0001 24.7722L23.8651 21.386Z" fill="#82D2FF"/>
<path d="M23.865 21.386V14.6137L18 11.2275V24.7722L23.865 21.386Z" fill="#55CBFF"/>
</g>
<defs>
<filter id="filter0_d_2048_5057" x="-1.41803" y="0.794364" width="38.8361" height="38.8361" filterUnits="userSpaceOnUse" color-interpolation-filters="sRGB">
<feFlood flood-opacity="0" result="BackgroundImageFix"/>
<feColorMatrix in="SourceAlpha" type="matrix" values="0 0 0 0 0 0 0 0 0 0 0 0 0 0 0 0 0 0 127 0" result="hardAlpha"/>
<feOffset dy="2.2124"/>
<feGaussianBlur stdDeviation="3.70902"/>
<feComposite in2="hardAlpha" operator="out"/>
<feColorMatrix type="matrix" values="0 0 0 0 0 0 0 0 0 0 0 0 0 0 0 0 0 0 0.25 0"/>
<feBlend mode="normal" in2="BackgroundImageFix" result="effect1_dropShadow_2048_5057"/>
<feBlend mode="normal" in="SourceGraphic" in2="effect1_dropShadow_2048_5057" result="shape"/>
</filter>
</defs>
</svg>
