<svg width="72" height="80" viewBox="0 0 72 80" fill="none" xmlns="http://www.w3.org/2000/svg">
<g filter="url(#filter0_d_2048_5222)">
<path d="M36 6L8.28711 22V54L36 70L63.7129 54V22L36 6Z" fill="#82D2FF"/>
<path d="M36 38V6L8.28711 22L36 38Z" fill="#08B7FC"/>
<path d="M8.28711 22V54L36 38L8.28711 22Z" fill="#006DFF"/>
<path d="M63.7129 22L36 38L63.7129 54V22Z" fill="#08B7FC"/>
<path d="M36 38L8.28711 54L36 70V38Z" fill="#0050C0"/>
<path d="M36 70L63.7129 54L36 38V70Z" fill="#006DFF"/>
<path d="M51.6406 47.0293V28.9698L36.0005 19.9399L20.3604 28.9698V47.0293L36.0005 56.0592L51.6406 47.0293Z" fill="#82D2FF"/>
<path d="M51.6401 47.0293V28.9698L36 19.9399V56.0592L51.6401 47.0293Z" fill="#55CBFF"/>
</g>
<defs>
<filter id="filter0_d_2048_5222" x="-3.41803" y="0.794364" width="78.8361" height="78.8361" filterUnits="userSpaceOnUse" color-interpolation-filters="sRGB">
<feFlood flood-opacity="0" result="BackgroundImageFix"/>
<feColorMatrix in="SourceAlpha" type="matrix" values="0 0 0 0 0 0 0 0 0 0 0 0 0 0 0 0 0 0 127 0" result="hardAlpha"/>
<feOffset dy="2.2124"/>
<feGaussianBlur stdDeviation="3.70902"/>
<feComposite in2="hardAlpha" operator="out"/>
<feColorMatrix type="matrix" values="0 0 0 0 0 0 0 0 0 0 0 0 0 0 0 0 0 0 0.25 0"/>
<feBlend mode="normal" in2="BackgroundImageFix" result="effect1_dropShadow_2048_5222"/>
<feBlend mode="normal" in="SourceGraphic" in2="effect1_dropShadow_2048_5222" result="shape"/>
</filter>
</defs>
</svg>
