<svg width="28" height="28" viewBox="0 0 28 28" fill="none" xmlns="http://www.w3.org/2000/svg">
<g opacity="0.5">
<path fill-rule="evenodd" clip-rule="evenodd" d="M11.6666 16.3333C11.6666 14.4001 10.0998 12.8333 8.16659 12.8333H5.83325C3.90009 12.8333 2.33325 14.4001 2.33325 16.3333V22.1666C2.33325 22.8106 2.85592 23.3333 3.49992 23.3333H10.4999C11.1439 23.3333 11.6666 22.8106 11.6666 22.1666V16.3333Z" fill="url(#paint0_linear_2123_43)"/>
<path fill-rule="evenodd" clip-rule="evenodd" d="M25.6666 14C25.6666 12.0668 24.0998 10.5 22.1666 10.5H19.8333C17.9001 10.5 16.3333 12.0668 16.3333 14V22.1667C16.3333 22.8107 16.8559 23.3333 17.4999 23.3333H24.4999C25.1439 23.3333 25.6666 22.8107 25.6666 22.1667V14Z" fill="url(#paint1_linear_2123_43)"/>
<path fill-rule="evenodd" clip-rule="evenodd" d="M19.8333 10.5C17.9001 10.5 16.3333 12.0668 16.3333 14V22.1667C16.3333 22.8107 16.8559 23.3333 17.4999 23.3333H19.8333V10.5Z" fill="url(#paint2_linear_2123_43)"/>
<path fill-rule="evenodd" clip-rule="evenodd" d="M8.16675 12.8333V23.3333H10.5001C11.1441 23.3333 11.6667 22.8106 11.6667 22.1666V16.3333C11.6667 14.4001 10.0999 12.8333 8.16675 12.8333Z" fill="url(#paint3_linear_2123_43)"/>
<path fill-rule="evenodd" clip-rule="evenodd" d="M18.6666 8.16669C18.6666 6.23352 17.0998 4.66669 15.1666 4.66669H12.8333C10.9001 4.66669 9.33325 6.23352 9.33325 8.16669V23.3334H18.6666V8.16669Z" fill="url(#paint4_linear_2123_43)"/>
</g>
<defs>
<linearGradient id="paint0_linear_2123_43" x1="4.83692" y1="21.2251" x2="8.73708" y2="9.90031" gradientUnits="userSpaceOnUse">
<stop stop-color="#FDD835"/>
<stop offset="1" stop-color="#FFFF00"/>
</linearGradient>
<linearGradient id="paint1_linear_2123_43" x1="21.5249" y1="22.05" x2="24.7123" y2="8.5505" gradientUnits="userSpaceOnUse">
<stop stop-color="#FFD600"/>
<stop offset="1" stop-color="#FFF176"/>
</linearGradient>
<linearGradient id="paint2_linear_2123_43" x1="19.1624" y1="20.5882" x2="20.2871" y2="10.5747" gradientUnits="userSpaceOnUse">
<stop stop-color="#FBC02D"/>
<stop offset="1" stop-color="#FDD835"/>
</linearGradient>
<linearGradient id="paint3_linear_2123_43" x1="8.77458" y1="20.363" x2="9.52475" y2="13.8005" gradientUnits="userSpaceOnUse">
<stop stop-color="#FBC02D"/>
<stop offset="1" stop-color="#FDD835"/>
</linearGradient>
<linearGradient id="paint4_linear_2123_43" x1="13.4994" y1="19.425" x2="17.4381" y2="4.04952" gradientUnits="userSpaceOnUse">
<stop stop-color="#F57F17"/>
<stop offset="1" stop-color="#F6BE1A"/>
</linearGradient>
</defs>
</svg>
