<svg width="28" height="28" viewBox="0 0 28 28" fill="none" xmlns="http://www.w3.org/2000/svg">
<g clip-path="url(#clip0_2123_70)">
<g clip-path="url(#clip1_2123_70)">
<path d="M27.2461 10.2494L20.9084 3.29984C20.8127 3.27747 20.7104 3.28343 20.6146 3.32093L15.8832 5.17423C15.8005 5.20665 15.7123 5.21565 15.6274 5.20265C15.5425 5.18964 15.143 5.51864 15.0738 5.46294L11.4074 2.36692C11.3273 2.30247 11.2565 1.81322 11.1586 1.80592L3.03074 6.53883L3.07732 15.8043C3.10106 15.8622 3.13578 15.9156 3.18016 15.9614L12.2445 25.304C12.3218 25.3837 12.4209 25.4328 12.5251 25.4487L24.4272 19.0758C24.4672 19.0277 24.498 18.972 24.5176 18.9114L27.2332 10.5061C27.2606 10.4217 27.2642 10.3332 27.2461 10.2494Z" fill="#FE646F"/>
<path d="M11.1585 1.80597C11.0606 1.79868 10.9604 1.8205 10.8716 1.87247L3.21131 6.35592C3.13474 6.40077 3.07307 6.46432 3.03073 6.53889L7.74178 11.2438L12.0742 10.4835L11.1585 1.80597Z" fill="#FE99A0"/>
<path d="M27.2462 10.2494L20.9084 3.29985C20.8127 3.27748 20.7104 3.28349 20.6147 3.32095L19.8703 3.61253C19.891 3.62858 19.9108 3.64608 19.9291 3.66552L25.9251 10.044C26.045 10.1715 26.0858 10.3506 26.0322 10.5134L23.3627 18.6178C23.3242 18.7346 23.2405 18.8322 23.1289 18.8902L11.7572 24.8017L12.2446 25.304C12.3219 25.3837 12.421 25.4328 12.5252 25.4487L24.4273 19.0758C24.4672 19.0278 24.4981 18.9721 24.5177 18.9114L27.2333 10.5061C27.2606 10.4218 27.2642 10.3333 27.2462 10.2494Z" fill="#FD4755"/>
<path d="M15.392 5.09889L11.4326 1.91393C11.3527 1.84956 11.2569 1.81337 11.1587 1.80634L10.7628 7.14758L13.9037 10.794L14.8556 10.241L15.6276 5.2026C15.5429 5.18961 15.4617 5.15469 15.392 5.09889Z" fill="#FB2B3A"/>
<path d="M7.46228 9.05566L3.03093 6.53941C2.98843 6.6141 2.96579 6.6994 2.96629 6.78771L3.04046 15.6206C3.0413 15.6839 3.05378 15.7466 3.07749 15.8043L7.47235 14.0014L7.46228 9.05566Z" fill="#FD4755"/>
<path d="M20.7739 16.0396L18.1302 16.6847L13.3632 19.9796L12.5251 25.4485C12.6295 25.4645 12.7389 25.4474 12.8362 25.3946L24.2821 19.1948C24.3379 19.1648 24.3872 19.1242 24.4273 19.0757L20.7739 16.0396Z" fill="#FB2B3A"/>
<path d="M24.2823 19.1948C24.338 19.1648 24.3874 19.1243 24.4275 19.0757L23.4732 18.2827L23.3629 18.6178C23.3244 18.7346 23.2406 18.8322 23.129 18.8902L12.6995 24.312L12.5254 25.4485C12.6297 25.4645 12.7391 25.4474 12.8364 25.3946L24.2823 19.1948Z" fill="#E41F2D"/>
<path d="M27.1286 10.0207L21.1622 3.44912C21.0932 3.37288 21.0042 3.32202 20.9083 3.30033L19.6866 8.51503L22.2645 11.3232L27.2459 10.2498C27.2282 10.1659 27.1882 10.0865 27.1286 10.0207Z" fill="#FD4755"/>
<path d="M27.2459 10.2498C27.2282 10.1659 27.1882 10.0865 27.1286 10.0208L21.1622 3.44914C21.0932 3.37289 21.0042 3.32203 20.9082 3.30034L20.6444 4.42654L25.925 10.0441C26.0444 10.171 26.0852 10.349 26.0327 10.5113L27.2459 10.2498Z" fill="#E41F2D"/>
<path d="M19.3929 8.53576L15.1112 10.2129C14.9458 10.2777 14.7582 10.249 14.6198 10.1376L11.0369 7.25532C10.8767 7.12643 10.6535 7.10994 10.476 7.21379L7.64265 8.8721C7.48947 8.96177 7.396 9.12644 7.3975 9.30387L7.43534 13.8172C7.4364 13.9446 7.48651 14.0667 7.57521 14.1581L13.0826 19.8346C13.2373 19.994 13.479 20.0311 13.6743 19.9253L20.6288 16.1583C20.7408 16.0976 20.8251 15.9962 20.8642 15.8749L22.2518 11.58C22.3064 11.4111 22.2665 11.226 22.1472 11.0946L19.9404 8.66402C19.8022 8.51186 19.5843 8.4608 19.3929 8.53576Z" fill="#FDB4BA"/>
</g>
</g>
<defs>
<clipPath id="clip0_2123_70">
<rect width="28" height="28" fill="white"/>
</clipPath>
<clipPath id="clip1_2123_70">
<rect width="24.563" height="24.563" fill="white" transform="translate(4) rotate(8.71171)"/>
</clipPath>
</defs>
</svg>
