<svg width="17" height="16" viewBox="0 0 17 16" fill="none" xmlns="http://www.w3.org/2000/svg">
<path d="M12.9447 7.37568L5.82449 0.255608C5.65981 0.090796 5.43997 0 5.20557 0C4.97116 0 4.75133 0.090796 4.58664 0.255608L4.06229 0.779831C3.72109 1.12142 3.72109 1.6766 4.06229 2.01767L10.0413 7.99668L4.05566 13.9823C3.89097 14.1471 3.80005 14.3668 3.80005 14.6011C3.80005 14.8357 3.89097 15.0554 4.05566 15.2203L4.58001 15.7444C4.74482 15.9092 4.96453 16 5.19893 16C5.43334 16 5.65317 15.9092 5.81785 15.7444L12.9447 8.61782C13.1098 8.45248 13.2004 8.23174 13.1999 7.99707C13.2004 7.7615 13.1098 7.54088 12.9447 7.37568Z" fill="#FFD15B"/>
</svg>
