<svg width="24" height="24" viewBox="0 0 24 24" fill="none" xmlns="http://www.w3.org/2000/svg">
<path d="M11.6824 4.98443C11.8578 5.15987 12.1422 5.15987 12.3176 4.98443L14.4264 2.87567C14.6018 2.70023 14.6018 2.41582 14.4264 2.24038L12.3176 0.13158C12.1422 -0.0438601 11.8578 -0.0438601 11.6824 0.13158L9.5736 2.24038C9.39816 2.41582 9.39816 2.70023 9.5736 2.87567L11.6824 4.98443Z" fill="#FFF76E"/>
<path d="M11.6824 9.5736L9.5736 11.6824C9.39816 11.8578 9.39816 12.1422 9.5736 12.3177L11.6824 14.4265C11.8578 14.6019 12.1422 14.6019 12.3176 14.4265L14.4264 12.3177C14.6018 12.1422 14.6018 11.8578 14.4264 11.6824L12.3176 9.5736C12.1422 9.39816 11.8578 9.39816 11.6824 9.5736Z" fill="#FFF76E"/>
<path d="M12.3176 19.0156C12.1422 18.8401 11.8578 18.8401 11.6824 19.0156L9.5736 21.1243C9.39816 21.2997 9.39816 21.5842 9.5736 21.7596L11.6824 23.8684C11.8578 24.0438 12.1422 24.0438 12.3176 23.8684L14.4264 21.7596C14.6018 21.5842 14.6018 21.2997 14.4264 21.1243L12.3176 19.0156Z" fill="#FFF76E"/>
<path d="M9.70086 16.3988L5.49091 12.1889C5.38658 12.0846 5.38658 11.9155 5.49091 11.8111L9.70086 7.60117C9.87879 7.42324 9.87879 7.13475 9.70086 6.95678L7.60116 4.85708C7.42324 4.67915 7.13474 4.67915 6.95677 4.85708L0.13613 11.6778C-0.0417961 11.8557 -0.0417961 12.1442 0.13613 12.3222L6.95682 19.1429C7.13474 19.3208 7.42324 19.3208 7.60121 19.1429L9.70091 17.0432C9.87884 16.8653 9.87884 16.5768 9.70086 16.3988Z" fill="#FFD800"/>
<path d="M23.8639 11.6778L17.0432 4.85708C16.8653 4.67915 16.5768 4.67915 16.3988 4.85708L14.2991 6.95678C14.1212 7.13471 14.1212 7.4232 14.2991 7.60112L18.5091 11.8111C18.6134 11.9154 18.6134 12.0845 18.5091 12.1888L14.2991 16.3988C14.1212 16.5767 14.1212 16.8652 14.2991 17.0432L16.3988 19.1429C16.5767 19.3208 16.8652 19.3208 17.0432 19.1429L23.8639 12.3222C24.0418 12.1442 24.0418 11.8557 23.8639 11.6778Z" fill="#FFB22A"/>
<path d="M12.3177 19.0153C12.2313 18.9289 12.1184 18.8853 12.0052 18.884V23.9995C12.1184 23.9982 12.2313 23.9545 12.3177 23.8682L14.4264 21.7594C14.6019 21.5839 14.6019 21.2995 14.4264 21.1241L12.3177 19.0153Z" fill="#FFD800"/>
<path d="M12.3177 9.57336C12.2313 9.48696 12.1184 9.44333 12.0052 9.44202V14.5575C12.1184 14.5562 12.2313 14.5126 12.3177 14.4262L14.4264 12.3174C14.6019 12.142 14.6019 11.8576 14.4264 11.6821L12.3177 9.57336Z" fill="#FFD800"/>
<path d="M12.3177 0.131346C12.2313 0.044939 12.1184 0.00131346 12.0052 0V5.11549C12.1184 5.11418 12.2313 5.07055 12.3177 4.98419L14.4264 2.87539C14.6019 2.69995 14.6019 2.41554 14.4264 2.2401L12.3177 0.131346Z" fill="#FFD800"/>
</svg>
